<mxfile host="app.diagrams.net" modified="2023-12-23T16:00:55.940Z" agent="Mozilla/5.0 (Windows NT 10.0; Win64; x64) AppleWebKit/537.36 (KHTML, like Gecko) Chrome/120.0.0.0 Safari/537.36" etag="4qjicfAiEYlGGWdMuAa3" version="22.1.11" type="device">
  <diagram name="第 1 页" id="MUgF70PuheaiXmNu_Gm6">
    <mxGraphModel dx="1050" dy="565" grid="1" gridSize="10" guides="1" tooltips="1" connect="1" arrows="1" fold="1" page="1" pageScale="1" pageWidth="827" pageHeight="1169" math="0" shadow="0">
      <root>
        <mxCell id="0" />
        <mxCell id="1" parent="0" />
        <mxCell id="676duB_hX1bKj5r3B9hy-1" value="" style="shape=actor;whiteSpace=wrap;html=1;" vertex="1" parent="1">
          <mxGeometry x="70" y="30" width="40" height="60" as="geometry" />
        </mxCell>
        <mxCell id="676duB_hX1bKj5r3B9hy-2" value="&lt;font style=&quot;font-size: 25px;&quot;&gt;管理員&lt;/font&gt;" style="rounded=0;whiteSpace=wrap;html=1;fontSize=25;" vertex="1" parent="1">
          <mxGeometry x="30" y="100" width="120" height="60" as="geometry" />
        </mxCell>
        <mxCell id="676duB_hX1bKj5r3B9hy-3" value="商品信息界面" style="rounded=0;whiteSpace=wrap;html=1;fontSize=25;" vertex="1" parent="1">
          <mxGeometry x="230" y="100" width="160" height="60" as="geometry" />
        </mxCell>
        <mxCell id="676duB_hX1bKj5r3B9hy-4" value="&lt;font style=&quot;font-size: 25px;&quot;&gt;商品管理&lt;/font&gt;" style="rounded=0;whiteSpace=wrap;html=1;fontSize=25;" vertex="1" parent="1">
          <mxGeometry x="450" y="100" width="160" height="60" as="geometry" />
        </mxCell>
        <mxCell id="676duB_hX1bKj5r3B9hy-5" value="&lt;font style=&quot;font-size: 25px;&quot;&gt;商品操作&lt;/font&gt;" style="rounded=0;whiteSpace=wrap;html=1;fontSize=25;" vertex="1" parent="1">
          <mxGeometry x="670" y="100" width="120" height="60" as="geometry" />
        </mxCell>
        <mxCell id="676duB_hX1bKj5r3B9hy-13" value="" style="endArrow=none;dashed=1;html=1;rounded=0;fontSize=16;strokeWidth=2;entryX=0.407;entryY=1.057;entryDx=0;entryDy=0;entryPerimeter=0;" edge="1" parent="1" source="676duB_hX1bKj5r3B9hy-14" target="676duB_hX1bKj5r3B9hy-2">
          <mxGeometry width="50" height="50" relative="1" as="geometry">
            <mxPoint x="79" y="590" as="sourcePoint" />
            <mxPoint x="115" y="210" as="targetPoint" />
          </mxGeometry>
        </mxCell>
        <mxCell id="676duB_hX1bKj5r3B9hy-15" value="" style="endArrow=none;dashed=1;html=1;rounded=0;fontSize=16;strokeWidth=2;entryX=0.55;entryY=0.99;entryDx=0;entryDy=0;entryPerimeter=0;" edge="1" parent="1" source="676duB_hX1bKj5r3B9hy-36" target="676duB_hX1bKj5r3B9hy-3">
          <mxGeometry width="50" height="50" relative="1" as="geometry">
            <mxPoint x="321" y="580" as="sourcePoint" />
            <mxPoint x="302" y="160" as="targetPoint" />
          </mxGeometry>
        </mxCell>
        <mxCell id="676duB_hX1bKj5r3B9hy-16" value="" style="endArrow=none;dashed=1;html=1;rounded=0;fontSize=16;strokeWidth=2;" edge="1" parent="1" source="676duB_hX1bKj5r3B9hy-24" target="676duB_hX1bKj5r3B9hy-4">
          <mxGeometry width="50" height="50" relative="1" as="geometry">
            <mxPoint x="530" y="590" as="sourcePoint" />
            <mxPoint x="540" y="160" as="targetPoint" />
            <Array as="points" />
          </mxGeometry>
        </mxCell>
        <mxCell id="676duB_hX1bKj5r3B9hy-17" value="" style="endArrow=none;dashed=1;html=1;rounded=0;fontSize=16;strokeWidth=2;" edge="1" parent="1" source="676duB_hX1bKj5r3B9hy-28" target="676duB_hX1bKj5r3B9hy-5">
          <mxGeometry width="50" height="50" relative="1" as="geometry">
            <mxPoint x="730" y="590" as="sourcePoint" />
            <mxPoint x="729.5" y="160" as="targetPoint" />
          </mxGeometry>
        </mxCell>
        <mxCell id="676duB_hX1bKj5r3B9hy-18" value="" style="endArrow=none;dashed=1;html=1;rounded=0;fontSize=16;strokeWidth=2;entryX=0.407;entryY=1.057;entryDx=0;entryDy=0;entryPerimeter=0;" edge="1" parent="1" target="676duB_hX1bKj5r3B9hy-14">
          <mxGeometry width="50" height="50" relative="1" as="geometry">
            <mxPoint x="84" y="590" as="sourcePoint" />
            <mxPoint x="79" y="163" as="targetPoint" />
          </mxGeometry>
        </mxCell>
        <mxCell id="676duB_hX1bKj5r3B9hy-14" value="" style="html=1;points=[[0,0,0,0,5],[0,1,0,0,-5],[1,0,0,0,5],[1,1,0,0,-5]];perimeter=orthogonalPerimeter;outlineConnect=0;targetShapes=umlLifeline;portConstraint=eastwest;newEdgeStyle={&quot;curved&quot;:0,&quot;rounded&quot;:0};" vertex="1" parent="1">
          <mxGeometry x="80" y="505" width="10" height="25" as="geometry" />
        </mxCell>
        <mxCell id="676duB_hX1bKj5r3B9hy-19" value="" style="endArrow=classic;html=1;rounded=0;" edge="1" parent="1">
          <mxGeometry width="50" height="50" relative="1" as="geometry">
            <mxPoint x="80" y="260" as="sourcePoint" />
            <mxPoint x="320" y="260" as="targetPoint" />
            <Array as="points">
              <mxPoint x="170" y="260" />
            </Array>
          </mxGeometry>
        </mxCell>
        <mxCell id="676duB_hX1bKj5r3B9hy-20" value="1.輸入用戶名密碼" style="edgeLabel;html=1;align=center;verticalAlign=middle;resizable=0;points=[];" vertex="1" connectable="0" parent="676duB_hX1bKj5r3B9hy-19">
          <mxGeometry x="-0.01" relative="1" as="geometry">
            <mxPoint as="offset" />
          </mxGeometry>
        </mxCell>
        <mxCell id="676duB_hX1bKj5r3B9hy-21" value="" style="html=1;points=[[0,0,0,0,5],[0,1,0,0,-5],[1,0,0,0,5],[1,1,0,0,-5]];perimeter=orthogonalPerimeter;outlineConnect=0;targetShapes=umlLifeline;portConstraint=eastwest;newEdgeStyle={&quot;curved&quot;:0,&quot;rounded&quot;:0};" vertex="1" parent="1">
          <mxGeometry x="315" y="260" width="10" height="50" as="geometry" />
        </mxCell>
        <mxCell id="676duB_hX1bKj5r3B9hy-22" value="" style="endArrow=classic;html=1;rounded=0;" edge="1" parent="1">
          <mxGeometry width="50" height="50" relative="1" as="geometry">
            <mxPoint x="325" y="310" as="sourcePoint" />
            <mxPoint x="530" y="310" as="targetPoint" />
            <Array as="points">
              <mxPoint x="415" y="310" />
            </Array>
          </mxGeometry>
        </mxCell>
        <mxCell id="676duB_hX1bKj5r3B9hy-23" value="2.選擇商品操作" style="edgeLabel;html=1;align=center;verticalAlign=middle;resizable=0;points=[];" vertex="1" connectable="0" parent="676duB_hX1bKj5r3B9hy-22">
          <mxGeometry x="-0.01" relative="1" as="geometry">
            <mxPoint as="offset" />
          </mxGeometry>
        </mxCell>
        <mxCell id="676duB_hX1bKj5r3B9hy-25" value="" style="endArrow=none;dashed=1;html=1;rounded=0;fontSize=16;strokeWidth=2;" edge="1" parent="1" source="676duB_hX1bKj5r3B9hy-33" target="676duB_hX1bKj5r3B9hy-24">
          <mxGeometry width="50" height="50" relative="1" as="geometry">
            <mxPoint x="530" y="590" as="sourcePoint" />
            <mxPoint x="530" y="160" as="targetPoint" />
            <Array as="points" />
          </mxGeometry>
        </mxCell>
        <mxCell id="676duB_hX1bKj5r3B9hy-24" value="" style="html=1;points=[[0,0,0,0,5],[0,1,0,0,-5],[1,0,0,0,5],[1,1,0,0,-5]];perimeter=orthogonalPerimeter;outlineConnect=0;targetShapes=umlLifeline;portConstraint=eastwest;newEdgeStyle={&quot;curved&quot;:0,&quot;rounded&quot;:0};" vertex="1" parent="1">
          <mxGeometry x="525" y="310" width="10" height="50" as="geometry" />
        </mxCell>
        <mxCell id="676duB_hX1bKj5r3B9hy-26" value="" style="endArrow=classic;html=1;rounded=0;" edge="1" parent="1">
          <mxGeometry width="50" height="50" relative="1" as="geometry">
            <mxPoint x="535" y="360" as="sourcePoint" />
            <mxPoint x="730" y="360" as="targetPoint" />
            <Array as="points">
              <mxPoint x="610" y="360" />
            </Array>
          </mxGeometry>
        </mxCell>
        <mxCell id="676duB_hX1bKj5r3B9hy-27" value="3.商品操作" style="edgeLabel;html=1;align=center;verticalAlign=middle;resizable=0;points=[];" vertex="1" connectable="0" parent="676duB_hX1bKj5r3B9hy-26">
          <mxGeometry x="-0.01" relative="1" as="geometry">
            <mxPoint x="-14" as="offset" />
          </mxGeometry>
        </mxCell>
        <mxCell id="676duB_hX1bKj5r3B9hy-29" value="" style="endArrow=none;dashed=1;html=1;rounded=0;fontSize=16;strokeWidth=2;" edge="1" parent="1" target="676duB_hX1bKj5r3B9hy-28">
          <mxGeometry width="50" height="50" relative="1" as="geometry">
            <mxPoint x="730" y="590" as="sourcePoint" />
            <mxPoint x="730" y="160" as="targetPoint" />
          </mxGeometry>
        </mxCell>
        <mxCell id="676duB_hX1bKj5r3B9hy-28" value="" style="html=1;points=[[0,0,0,0,5],[0,1,0,0,-5],[1,0,0,0,5],[1,1,0,0,-5]];perimeter=orthogonalPerimeter;outlineConnect=0;targetShapes=umlLifeline;portConstraint=eastwest;newEdgeStyle={&quot;curved&quot;:0,&quot;rounded&quot;:0};" vertex="1" parent="1">
          <mxGeometry x="725" y="360" width="10" height="50" as="geometry" />
        </mxCell>
        <mxCell id="676duB_hX1bKj5r3B9hy-32" value="4.返回操作" style="html=1;verticalAlign=bottom;endArrow=open;dashed=1;endSize=8;curved=0;rounded=0;exitX=0;exitY=1;exitDx=0;exitDy=-5;exitPerimeter=0;" edge="1" source="676duB_hX1bKj5r3B9hy-28" parent="1">
          <mxGeometry relative="1" as="geometry">
            <mxPoint x="540" y="405" as="targetPoint" />
            <mxPoint x="380" y="345" as="sourcePoint" />
          </mxGeometry>
        </mxCell>
        <mxCell id="676duB_hX1bKj5r3B9hy-34" value="" style="endArrow=none;dashed=1;html=1;rounded=0;fontSize=16;strokeWidth=2;" edge="1" parent="1" target="676duB_hX1bKj5r3B9hy-33">
          <mxGeometry width="50" height="50" relative="1" as="geometry">
            <mxPoint x="533" y="590" as="sourcePoint" />
            <mxPoint x="530" y="360" as="targetPoint" />
            <Array as="points">
              <mxPoint x="533" y="570" />
            </Array>
          </mxGeometry>
        </mxCell>
        <mxCell id="676duB_hX1bKj5r3B9hy-33" value="" style="html=1;points=[[0,0,0,0,5],[0,1,0,0,-5],[1,0,0,0,5],[1,1,0,0,-5]];perimeter=orthogonalPerimeter;outlineConnect=0;targetShapes=umlLifeline;portConstraint=eastwest;newEdgeStyle={&quot;curved&quot;:0,&quot;rounded&quot;:0};" vertex="1" parent="1">
          <mxGeometry x="525" y="400" width="15" height="50" as="geometry" />
        </mxCell>
        <mxCell id="676duB_hX1bKj5r3B9hy-35" value="5.返回操作" style="html=1;verticalAlign=bottom;endArrow=open;dashed=1;endSize=8;curved=0;rounded=0;exitX=0;exitY=1;exitDx=0;exitDy=-5;exitPerimeter=0;" edge="1" parent="1">
          <mxGeometry relative="1" as="geometry">
            <mxPoint x="320" y="450" as="targetPoint" />
            <mxPoint x="540" y="450" as="sourcePoint" />
          </mxGeometry>
        </mxCell>
        <mxCell id="676duB_hX1bKj5r3B9hy-37" value="" style="endArrow=none;dashed=1;html=1;rounded=0;fontSize=16;strokeWidth=2;" edge="1" parent="1" target="676duB_hX1bKj5r3B9hy-36">
          <mxGeometry width="50" height="50" relative="1" as="geometry">
            <mxPoint x="321" y="580" as="sourcePoint" />
            <mxPoint x="320" y="160" as="targetPoint" />
          </mxGeometry>
        </mxCell>
        <mxCell id="676duB_hX1bKj5r3B9hy-36" value="" style="html=1;points=[[0,0,0,0,5],[0,1,0,0,-5],[1,0,0,0,5],[1,1,0,0,-5]];perimeter=orthogonalPerimeter;outlineConnect=0;targetShapes=umlLifeline;portConstraint=eastwest;newEdgeStyle={&quot;curved&quot;:0,&quot;rounded&quot;:0};" vertex="1" parent="1">
          <mxGeometry x="315" y="450" width="10" height="60" as="geometry" />
        </mxCell>
        <mxCell id="676duB_hX1bKj5r3B9hy-38" value="6.返回操作" style="html=1;verticalAlign=bottom;endArrow=open;dashed=1;endSize=8;curved=0;rounded=0;exitX=0;exitY=1;exitDx=0;exitDy=-5;exitPerimeter=0;" edge="1" parent="1" source="676duB_hX1bKj5r3B9hy-36">
          <mxGeometry relative="1" as="geometry">
            <mxPoint x="90" y="505" as="targetPoint" />
            <mxPoint x="310" y="505" as="sourcePoint" />
          </mxGeometry>
        </mxCell>
      </root>
    </mxGraphModel>
  </diagram>
</mxfile>
